<svg width="23" height="23" viewBox="0 0 23 23" fill="none" xmlns="http://www.w3.org/2000/svg">
<path d="M16.0147 5.97229L4.02442 17.9921L3.29785 19.751L5.05676 19.0244L17.0766 7.03416L16.0147 5.97229Z" stroke="#234B89" stroke-width="1.40995" stroke-linecap="round" stroke-linejoin="round"/>
<path d="M18.4135 3.57369L17.894 4.09273L18.9559 5.15459L19.4754 4.63512C19.6117 4.49871 19.6883 4.31376 19.6883 4.12093C19.6883 3.92809 19.6117 3.74314 19.4754 3.60673L19.4423 3.57369C19.3748 3.50613 19.2946 3.45254 19.2063 3.41598C19.1181 3.37941 19.0235 3.3606 18.9279 3.3606C18.8324 3.3606 18.7378 3.37941 18.6495 3.41598C18.5613 3.45254 18.4811 3.50613 18.4135 3.57369Z" stroke="#234B89" stroke-width="1.40995" stroke-linecap="round" stroke-linejoin="round"/>
</svg>
