<svg width="22" height="22" viewBox="0 0 22 22" fill="none" xmlns="http://www.w3.org/2000/svg">
<rect x="0.0791931" y="0.542114" width="21.464" height="21.464" rx="1.3415" fill="#234B89"/>
<path d="M15.1132 5.96179L3.70501 17.3981L3.01372 19.0716L4.68724 18.3803L16.1235 6.97211L15.1132 5.96179Z" stroke="white" stroke-width="1.3415" stroke-linecap="round" stroke-linejoin="round"/>
<path d="M17.3958 3.67955L16.9016 4.17339L17.9119 5.18371L18.4061 4.68945C18.5358 4.55967 18.6087 4.3837 18.6087 4.20022C18.6087 4.01675 18.5358 3.84078 18.4061 3.711L18.3747 3.67955C18.3104 3.61528 18.2341 3.56429 18.1502 3.5295C18.0662 3.49471 17.9762 3.47681 17.8853 3.47681C17.7944 3.47681 17.7044 3.49471 17.6204 3.5295C17.5364 3.56429 17.4601 3.61528 17.3958 3.67955Z" stroke="white" stroke-width="1.3415" stroke-linecap="round" stroke-linejoin="round"/>
</svg>
