<svg width="22" height="23" viewBox="0 0 22 23" fill="none" xmlns="http://www.w3.org/2000/svg">
<path d="M11.0557 13.4519C12.167 13.4519 13.0679 12.5509 13.0679 11.4396C13.0679 10.3283 12.167 9.42737 11.0557 9.42737C9.94437 9.42737 9.04346 10.3283 9.04346 11.4396C9.04346 12.5509 9.94437 13.4519 11.0557 13.4519Z" fill="#234B89"/>
<path d="M17.7632 13.4519C18.8746 13.4519 19.7755 12.5509 19.7755 11.4396C19.7755 10.3283 18.8746 9.42737 17.7632 9.42737C16.6519 9.42737 15.751 10.3283 15.751 11.4396C15.751 12.5509 16.6519 13.4519 17.7632 13.4519Z" fill="#234B89"/>
<path d="M4.34818 13.4519C5.45952 13.4519 6.36043 12.5509 6.36043 11.4396C6.36043 10.3283 5.45952 9.42737 4.34818 9.42737C3.23685 9.42737 2.33594 10.3283 2.33594 11.4396C2.33594 12.5509 3.23685 13.4519 4.34818 13.4519Z" fill="#234B89"/>
</svg>
