<svg width="22" height="22" viewBox="0 0 22 22" fill="none" xmlns="http://www.w3.org/2000/svg">
<path d="M3.09488 15.5082C2.96541 15.5083 2.83868 15.4709 2.73 15.4005C2.62132 15.3301 2.53533 15.2298 2.48241 15.1117C1.84204 13.6815 1.56974 12.1138 1.69034 10.5515C1.81093 8.98911 2.32058 7.48178 3.17284 6.16682C4.02511 4.85186 5.19288 3.77108 6.56976 3.02297C7.94664 2.27485 9.48884 1.88319 11.0558 1.88367C11.2337 1.88367 11.4043 1.95434 11.5301 2.08013C11.6559 2.20591 11.7266 2.37652 11.7266 2.55442V11.2741C11.7266 11.4037 11.6891 11.5304 11.6187 11.6391C11.5482 11.7478 11.4478 11.8338 11.3296 11.8866L3.36863 15.4479C3.28268 15.4871 3.18938 15.5077 3.09488 15.5082Z" fill="#234B89"/>
<path d="M13.4701 3.40025C13.4215 3.39038 13.3713 3.39144 13.3231 3.40333C13.2749 3.41522 13.23 3.43765 13.1915 3.46901C13.1531 3.50037 13.122 3.53988 13.1007 3.58468C13.0793 3.62947 13.0682 3.67845 13.0681 3.72807V11.274C13.0677 11.6624 12.9552 12.0424 12.744 12.3683C12.5328 12.6942 12.2319 12.9521 11.8775 13.111L4.64725 16.3465C4.60243 16.3665 4.56255 16.3961 4.53043 16.4333C4.4983 16.4704 4.47471 16.5141 4.46131 16.5613C4.44792 16.6085 4.44505 16.6581 4.45292 16.7065C4.46078 16.755 4.47918 16.8011 4.50681 16.8416C5.06014 17.6554 5.74699 18.3699 6.53834 18.9549C8.03767 20.0703 9.8579 20.6701 11.7266 20.6645C16.5346 20.6645 20.4463 16.7528 20.4463 11.9448C20.4463 7.7337 17.4456 4.21018 13.4701 3.40025Z" fill="#234B89"/>
</svg>
