<svg width="23" height="23" viewBox="0 0 23 23" fill="none" xmlns="http://www.w3.org/2000/svg">
<path d="M16.0146 5.97229L4.02429 17.9921L3.29773 19.751L5.05664 19.0244L17.0764 7.03416L16.0146 5.97229Z" stroke="#726AED" stroke-width="1.40995" stroke-linecap="round" stroke-linejoin="round"/>
<path d="M18.4136 3.57369L17.8942 4.09273L18.956 5.15459L19.4755 4.63512C19.6118 4.49871 19.6884 4.31376 19.6884 4.12093C19.6884 3.92809 19.6118 3.74314 19.4755 3.60673L19.4425 3.57369C19.3749 3.50613 19.2947 3.45254 19.2065 3.41598C19.1182 3.37941 19.0236 3.3606 18.9281 3.3606C18.8325 3.3606 18.7379 3.37941 18.6497 3.41598C18.5614 3.45254 18.4812 3.50613 18.4136 3.57369Z" stroke="#726AED" stroke-width="1.40995" stroke-linecap="round" stroke-linejoin="round"/>
</svg>
