<svg width="63" height="63" viewBox="0 0 63 63" fill="none" xmlns="http://www.w3.org/2000/svg">
<path d="M31.2681 5.86279C17.2597 5.86279 5.86279 17.2597 5.86279 31.2681C5.86279 45.2764 17.2597 56.6733 31.2681 56.6733C45.2764 56.6733 56.6733 45.2764 56.6733 31.2681C56.6733 17.2597 45.2764 5.86279 31.2681 5.86279ZM40.4665 37.7037C40.6556 37.8833 40.8068 38.099 40.9112 38.3381C41.0157 38.5771 41.0712 38.8346 41.0745 39.0954C41.0779 39.3563 41.029 39.6151 40.9307 39.8567C40.8324 40.0984 40.6868 40.3179 40.5023 40.5023C40.3179 40.6868 40.0984 40.8324 39.8567 40.9307C39.6151 41.029 39.3563 41.0779 39.0954 41.0745C38.8346 41.0712 38.5771 41.0157 38.3381 40.9112C38.099 40.8068 37.8833 40.6556 37.7037 40.4665L31.2681 34.0321L24.8325 40.4665C24.463 40.8175 23.971 41.0103 23.4614 41.0038C22.9518 40.9973 22.4649 40.7919 22.1046 40.4316C21.7442 40.0712 21.5389 39.5843 21.5323 39.0747C21.5258 38.5651 21.7186 38.0731 22.0696 37.7037L28.504 31.2681L22.0696 24.8325C21.7186 24.463 21.5258 23.971 21.5323 23.4614C21.5389 22.9518 21.7442 22.4649 22.1046 22.1046C22.4649 21.7442 22.9518 21.5389 23.4614 21.5323C23.971 21.5258 24.463 21.7186 24.8325 22.0696L31.2681 28.504L37.7037 22.0696C38.0731 21.7186 38.5651 21.5258 39.0747 21.5323C39.5843 21.5389 40.0712 21.7442 40.4316 22.1046C40.7919 22.4649 40.9973 22.9518 41.0038 23.4614C41.0103 23.971 40.8175 24.463 40.4665 24.8325L34.0321 31.2681L40.4665 37.7037Z" fill="#FF0E0E"/>
</svg>
