<svg width="32" height="32" viewBox="0 0 32 32" fill="none" xmlns="http://www.w3.org/2000/svg">
<path d="M6.5 10C5.80776 10 5.13108 9.79472 4.5555 9.41014C3.97993 9.02556 3.53133 8.47893 3.26642 7.83939C3.00152 7.19985 2.9322 6.49612 3.06725 5.81718C3.2023 5.13825 3.53564 4.51461 4.02513 4.02513C4.51461 3.53564 5.13825 3.2023 5.81718 3.06725C6.49612 2.9322 7.19985 3.00152 7.83939 3.26642C8.47893 3.53133 9.02556 3.97993 9.41014 4.5555C9.79472 5.13108 10 5.80776 10 6.5C9.999 7.42795 9.62994 8.31761 8.97377 8.97377C8.31761 9.62994 7.42795 9.999 6.5 10Z" fill="white"/>
<path d="M16 10C15.3078 10 14.6311 9.79472 14.0555 9.41014C13.4799 9.02556 13.0313 8.47893 12.7664 7.83939C12.5015 7.19985 12.4322 6.49612 12.5673 5.81718C12.7023 5.13825 13.0356 4.51461 13.5251 4.02513C14.0146 3.53564 14.6383 3.2023 15.3172 3.06725C15.9961 2.9322 16.6999 3.00152 17.3394 3.26642C17.9789 3.53133 18.5256 3.97993 18.9101 4.5555C19.2947 5.13108 19.5 5.80776 19.5 6.5C19.499 7.42795 19.1299 8.31761 18.4738 8.97377C17.8176 9.62994 16.928 9.999 16 10Z" fill="white"/>
<path d="M25.5 10C24.8078 10 24.1311 9.79472 23.5555 9.41014C22.9799 9.02556 22.5313 8.47893 22.2664 7.83939C22.0015 7.19985 21.9322 6.49612 22.0673 5.81718C22.2023 5.13825 22.5356 4.51461 23.0251 4.02513C23.5146 3.53564 24.1382 3.2023 24.8172 3.06725C25.4961 2.9322 26.1998 3.00152 26.8394 3.26642C27.4789 3.53133 28.0256 3.97993 28.4101 4.5555C28.7947 5.13108 29 5.80776 29 6.5C28.999 7.42795 28.6299 8.31761 27.9738 8.97377C27.3176 9.62994 26.4279 9.999 25.5 10Z" fill="white"/>
<path d="M6.5 19.5C5.80776 19.5 5.13108 19.2947 4.5555 18.9101C3.97993 18.5256 3.53133 17.9789 3.26642 17.3394C3.00152 16.6999 2.9322 15.9961 3.06725 15.3172C3.2023 14.6383 3.53564 14.0146 4.02513 13.5251C4.51461 13.0356 5.13825 12.7023 5.81718 12.5673C6.49612 12.4322 7.19985 12.5015 7.83939 12.7664C8.47893 13.0313 9.02556 13.4799 9.41014 14.0555C9.79472 14.6311 10 15.3078 10 16C9.999 16.928 9.62994 17.8176 8.97377 18.4738C8.31761 19.1299 7.42795 19.499 6.5 19.5Z" fill="white"/>
<path d="M16 19.5C15.3078 19.5 14.6311 19.2947 14.0555 18.9101C13.4799 18.5256 13.0313 17.9789 12.7664 17.3394C12.5015 16.6999 12.4322 15.9961 12.5673 15.3172C12.7023 14.6383 13.0356 14.0146 13.5251 13.5251C14.0146 13.0356 14.6383 12.7023 15.3172 12.5673C15.9961 12.4322 16.6999 12.5015 17.3394 12.7664C17.9789 13.0313 18.5256 13.4799 18.9101 14.0555C19.2947 14.6311 19.5 15.3078 19.5 16C19.499 16.928 19.1299 17.8176 18.4738 18.4738C17.8176 19.1299 16.928 19.499 16 19.5Z" fill="white"/>
<path d="M25.5 19.5C24.8078 19.5 24.1311 19.2947 23.5555 18.9101C22.9799 18.5256 22.5313 17.9789 22.2664 17.3394C22.0015 16.6999 21.9322 15.9961 22.0673 15.3172C22.2023 14.6383 22.5356 14.0146 23.0251 13.5251C23.5146 13.0356 24.1382 12.7023 24.8172 12.5673C25.4961 12.4322 26.1998 12.5015 26.8394 12.7664C27.4789 13.0313 28.0256 13.4799 28.4101 14.0555C28.7947 14.6311 29 15.3078 29 16C28.999 16.928 28.6299 17.8176 27.9738 18.4738C27.3176 19.1299 26.4279 19.499 25.5 19.5Z" fill="white"/>
<path d="M6.5 29C5.80776 29 5.13108 28.7947 4.5555 28.4101C3.97993 28.0256 3.53133 27.4789 3.26642 26.8394C3.00152 26.1998 2.9322 25.4961 3.06725 24.8172C3.2023 24.1382 3.53564 23.5146 4.02513 23.0251C4.51461 22.5356 5.13825 22.2023 5.81718 22.0673C6.49612 21.9322 7.19985 22.0015 7.83939 22.2664C8.47893 22.5313 9.02556 22.9799 9.41014 23.5555C9.79472 24.1311 10 24.8078 10 25.5C9.999 26.4279 9.62994 27.3176 8.97377 27.9738C8.31761 28.6299 7.42795 28.999 6.5 29Z" fill="white"/>
<path d="M16 29C15.3078 29 14.6311 28.7947 14.0555 28.4101C13.4799 28.0256 13.0313 27.4789 12.7664 26.8394C12.5015 26.1998 12.4322 25.4961 12.5673 24.8172C12.7023 24.1382 13.0356 23.5146 13.5251 23.0251C14.0146 22.5356 14.6383 22.2023 15.3172 22.0673C15.9961 21.9322 16.6999 22.0015 17.3394 22.2664C17.9789 22.5313 18.5256 22.9799 18.9101 23.5555C19.2947 24.1311 19.5 24.8078 19.5 25.5C19.499 26.4279 19.1299 27.3176 18.4738 27.9738C17.8176 28.6299 16.928 28.999 16 29Z" fill="white"/>
<path d="M25.5 29C24.8078 29 24.1311 28.7947 23.5555 28.4101C22.9799 28.0256 22.5313 27.4789 22.2664 26.8394C22.0015 26.1998 21.9322 25.4961 22.0673 24.8172C22.2023 24.1382 22.5356 23.5146 23.0251 23.0251C23.5146 22.5356 24.1382 22.2023 24.8172 22.0673C25.4961 21.9322 26.1998 22.0015 26.8394 22.2664C27.4789 22.5313 28.0256 22.9799 28.4101 23.5555C28.7947 24.1311 29 24.8078 29 25.5C28.999 26.4279 28.6299 27.3176 27.9738 27.9738C27.3176 28.6299 26.4279 28.999 25.5 29Z" fill="white"/>
</svg>
