<svg width="22" height="23" viewBox="0 0 22 23" fill="none" xmlns="http://www.w3.org/2000/svg">
<rect x="0.0792236" y="0.707642" width="21.464" height="21.464" rx="1.3415" fill="#726AED"/>
<path d="M15.1133 6.12732L3.70508 17.5636L3.01379 19.2371L4.68731 18.5458L16.1236 7.13763L15.1133 6.12732Z" stroke="white" stroke-width="1.3415" stroke-linecap="round" stroke-linejoin="round"/>
<path d="M17.3959 3.84508L16.9016 4.33892L17.9119 5.34924L18.4062 4.85498C18.5359 4.72519 18.6087 4.54923 18.6087 4.36575C18.6087 4.18228 18.5359 4.00631 18.4062 3.87652L18.3747 3.84508C18.3105 3.7808 18.2342 3.72981 18.1502 3.69503C18.0662 3.66024 17.9762 3.64233 17.8853 3.64233C17.7944 3.64233 17.7044 3.66024 17.6204 3.69503C17.5364 3.72981 17.4601 3.7808 17.3959 3.84508Z" stroke="white" stroke-width="1.3415" stroke-linecap="round" stroke-linejoin="round"/>
</svg>
