<svg width="22" height="23" viewBox="0 0 22 23" fill="none" xmlns="http://www.w3.org/2000/svg">
<path d="M3.09487 15.6738C2.9654 15.6738 2.83867 15.6364 2.72999 15.566C2.62131 15.4957 2.53532 15.3954 2.4824 15.2772C1.84203 13.847 1.56973 12.2793 1.69033 10.717C1.81092 9.15464 2.32057 7.64731 3.17283 6.33235C4.02509 5.01739 5.19287 3.93661 6.56975 3.1885C7.94663 2.44038 9.48883 2.04872 11.0558 2.04919C11.2337 2.04919 11.4043 2.11986 11.5301 2.24565C11.6559 2.37144 11.7266 2.54205 11.7266 2.71994V11.4397C11.7266 11.5692 11.6891 11.696 11.6187 11.8046C11.5482 11.9133 11.4478 11.9993 11.3296 12.0521L3.36862 15.6134C3.28267 15.6527 3.18937 15.6732 3.09487 15.6738Z" fill="#726AED"/>
<path d="M13.4701 3.56577C13.4215 3.55591 13.3713 3.55696 13.3231 3.56885C13.2749 3.58075 13.23 3.60318 13.1915 3.63454C13.1531 3.6659 13.1221 3.7054 13.1007 3.7502C13.0794 3.795 13.0682 3.84398 13.0681 3.8936V11.4395C13.0678 11.8279 12.9552 12.2079 12.744 12.5338C12.5328 12.8597 12.2319 13.1176 11.8775 13.2765L4.64727 16.5121C4.60246 16.5321 4.56258 16.5617 4.53045 16.5988C4.49832 16.6359 4.47473 16.6796 4.46134 16.7268C4.44794 16.774 4.44508 16.8236 4.45294 16.872C4.4608 16.9205 4.4792 16.9666 4.50683 17.0072C5.06017 17.821 5.74701 18.5355 6.53836 19.1204C8.03769 20.2358 9.85792 20.8356 11.7266 20.83C16.5346 20.83 20.4463 16.9183 20.4463 12.1103C20.4463 7.89923 17.4456 4.3757 13.4701 3.56577Z" fill="#726AED"/>
</svg>
