<svg width="32" height="32" viewBox="0 0 32 32" fill="none" xmlns="http://www.w3.org/2000/svg">
<path d="M31 11C30.9988 9.93949 30.577 8.92275 29.8271 8.17285C29.0773 7.42296 28.0605 7.00116 27 7H24V6C23.9992 5.2046 23.6828 4.44202 23.1204 3.87959C22.558 3.31716 21.7954 3.00083 21 3H11C10.2046 3.00083 9.44202 3.31716 8.87959 3.87959C8.31716 4.44202 8.00083 5.2046 8 6V7H5C3.93949 7.00116 2.92275 7.42296 2.17285 8.17285C1.42296 8.92275 1.00116 9.93949 1 11V14H31V11ZM22 7H10V6C10 5.73478 10.1054 5.48043 10.2929 5.29289C10.4804 5.10536 10.7348 5 11 5H21C21.2652 5 21.5196 5.10536 21.7071 5.29289C21.8946 5.48043 22 5.73478 22 6V7Z" fill="white"/>
<path d="M21 16.5C21 16.8978 20.842 17.2794 20.5607 17.5607C20.2794 17.842 19.8978 18 19.5 18H12.5C12.1022 18 11.7206 17.842 11.4393 17.5607C11.158 17.2794 11 16.8978 11 16.5V16.25C11 16.1837 10.9737 16.1201 10.9268 16.0732C10.8799 16.0263 10.8163 16 10.75 16H1V25C1 26.0609 1.42143 27.0783 2.17157 27.8284C2.92172 28.5786 3.93913 29 5 29H27C28.0609 29 29.0783 28.5786 29.8284 27.8284C30.5786 27.0783 31 26.0609 31 25V16H21.25C21.1837 16 21.1201 16.0263 21.0732 16.0732C21.0263 16.1201 21 16.1837 21 16.25V16.5Z" fill="white"/>
</svg>
