<svg width="32" height="32" viewBox="0 0 32 32" fill="none" xmlns="http://www.w3.org/2000/svg">
<g clip-path="url(#clip0_6_3219)">
<path d="M28 11.4875V3.8C28.0012 3.43245 27.9297 3.06829 27.7898 2.72843C27.6498 2.38856 27.4441 2.07968 27.1845 1.81952C26.9249 1.55936 26.6164 1.35304 26.2768 1.21241C25.9372 1.07177 25.5732 0.999588 25.2057 1H17.5225C17.0187 1.00104 16.5357 1.20069 16.1782 1.55563L0.818151 16.9113C0.294286 17.4368 0.00012207 18.1486 0.00012207 18.8906C0.00012207 19.6327 0.294286 20.3445 0.818151 20.87L8.13066 28.1825C8.65601 28.7065 9.36773 29.0007 10.1097 29.0007C10.8517 29.0007 11.5634 28.7065 12.0888 28.1825L27.4444 12.8319C27.7995 12.4744 27.9991 11.9913 28 11.4875ZM22 9C21.6045 9 21.2178 8.8827 20.8889 8.66294C20.56 8.44318 20.3037 8.13082 20.1523 7.76537C20.0009 7.39992 19.9613 6.99778 20.0385 6.60982C20.1156 6.22186 20.3061 5.86549 20.5858 5.58579C20.8655 5.30608 21.2219 5.1156 21.6099 5.03843C21.9978 4.96126 22.4 5.00087 22.7654 5.15224C23.1309 5.30362 23.4432 5.55996 23.663 5.88886C23.8827 6.21776 24 6.60444 24 7C24 7.53044 23.7893 8.03914 23.4143 8.41422C23.0392 8.78929 22.5305 9 22 9Z" fill="white"/>
<path d="M31.0001 4C30.7348 4 30.4805 4.10536 30.2929 4.29289C30.1054 4.48043 30.0001 4.73478 30.0001 5V12.9606L13.6682 29.2931C13.5714 29.3851 13.494 29.4954 13.4406 29.6178C13.3871 29.7401 13.3587 29.8718 13.357 30.0053C13.3553 30.1388 13.3803 30.2712 13.4306 30.3949C13.4809 30.5185 13.5554 30.6308 13.6498 30.7252C13.7442 30.8196 13.8565 30.8941 13.9802 30.9444C14.1038 30.9947 14.2363 31.0197 14.3697 31.018C14.5032 31.0163 14.635 30.9879 14.7573 30.9345C14.8796 30.881 14.99 30.8036 15.0819 30.7069L31.4569 14.3319C31.6311 14.1569 31.7688 13.949 31.8621 13.7204C31.9553 13.4918 32.0022 13.2469 32.0001 13V5C32.0001 4.73478 31.8947 4.48043 31.7072 4.29289C31.5196 4.10536 31.2653 4 31.0001 4Z" fill="white"/>
</g>
<defs>
<clipPath id="clip0_6_3219">
<rect width="32" height="32" fill="white"/>
</clipPath>
</defs>
</svg>
