<svg width="32" height="32" viewBox="0 0 32 32" fill="none" xmlns="http://www.w3.org/2000/svg">
<path d="M21 16C19.715 16 18.4725 15.4263 17.5 14.385C16.5544 13.3694 15.9769 12.015 15.875 10.5725C15.7663 9.03375 16.2357 7.61875 17.1963 6.5875C18.1569 5.55625 19.5 5 21 5C22.4894 5 23.8363 5.56625 24.7938 6.595C25.7607 7.63375 26.2313 9.04625 26.1225 10.5719C26.0182 12.0162 25.4413 13.37 24.4975 14.3844C23.5275 15.4262 22.2857 16 21 16Z" fill="white"/>
<path d="M29.2393 27H12.7612C12.4963 27.0014 12.2345 26.942 11.9962 26.8264C11.7578 26.7108 11.5491 26.542 11.3862 26.3331C11.2134 26.1066 11.0941 25.844 11.0371 25.5649C10.9802 25.2857 10.9871 24.9973 11.0575 24.7213C11.5837 22.6081 12.8875 20.8556 14.8274 19.6537C16.5493 18.5875 18.7412 18 20.9999 18C23.3031 18 25.4374 18.5625 27.1693 19.6281C29.1137 20.8237 30.4193 22.5863 30.9431 24.725C31.0125 25.0013 31.0187 25.2897 30.9611 25.5687C30.9035 25.8477 30.7837 26.11 30.6106 26.3363C30.4478 26.5442 30.2396 26.7121 30.0019 26.8272C29.7642 26.9422 29.5034 27.0014 29.2393 27Z" fill="white"/>
<path d="M9.18752 16.25C6.98815 16.25 5.0544 14.205 4.87503 11.6919C4.78628 10.4044 5.18753 9.21375 6.00003 8.34062C6.80378 7.47625 7.93753 7 9.18752 7C10.4375 7 11.5625 7.47875 12.3706 8.34813C13.1894 9.22813 13.5894 10.4162 13.4956 11.6931C13.3163 14.2056 11.3831 16.25 9.18752 16.25Z" fill="white"/>
<path d="M13.2913 18.2157C12.1919 17.6782 10.7651 17.4094 9.18818 17.4094C7.34693 17.4094 5.5588 17.8894 4.15255 18.7607C2.55818 19.7501 1.48568 21.1907 1.05255 22.9301C0.989167 23.1802 0.983172 23.4415 1.03501 23.6944C1.08686 23.9472 1.1952 24.185 1.35193 24.3901C1.50064 24.581 1.69117 24.7353 1.90884 24.841C2.12652 24.9468 2.36555 25.0012 2.60755 25.0001H9.54506C9.66215 25.0001 9.77552 24.9589 9.86541 24.8839C9.9553 24.8089 10.016 24.7047 10.0369 24.5894C10.0438 24.5501 10.0526 24.5107 10.0626 24.4719C10.5926 22.3432 11.8344 20.5444 13.6694 19.2332C13.7369 19.1845 13.7912 19.1198 13.8274 19.0449C13.8635 18.9699 13.8804 18.8872 13.8765 18.8041C13.8726 18.721 13.848 18.6401 13.805 18.5689C13.7619 18.4977 13.7018 18.4384 13.6301 18.3963C13.5319 18.3388 13.4194 18.2782 13.2913 18.2157Z" fill="white"/>
</svg>
